<?xml version="1.0" encoding="iso-8859-1"?>
<!-- Generator: Adobe Illustrator 19.0.0, SVG Export Plug-In . SVG Version: 6.00 Build 0)  -->
<svg version="1.1" id="Layer_1" xmlns="http://www.w3.org/2000/svg" xmlns:xlink="http://www.w3.org/1999/xlink" x="0px" y="0px"
	 viewBox="0 0 512 512" style="enable-background:new 0 0 512 512;" xml:space="preserve">
<path style="fill:#AA8E55;" d="M478.609,166.957v211.478c6.147,0,11.13,4.983,11.13,11.13v55.652
	c12.295,0,22.261,9.966,22.261,22.261V512h-33.391H367.304h-11.13h-22.261H267.13c-6.147,0-11.13-4.983-11.13-11.13
	c0-6.147,4.983-11.13,11.13-11.13h66.783v-22.261c0-12.295,9.966-22.261,22.261-22.261v-55.652c0-6.147,4.983-11.13,11.13-11.13
	V278.261c0-61.471-49.832-111.304-111.304-111.304l0,0c-61.471,0-111.304,49.832-111.304,111.304v100.174
	c6.147,0,11.13,4.983,11.13,11.13v55.652c12.295,0,22.261,9.966,22.261,22.261v22.261h33.391c6.147,0,11.13,4.983,11.13,11.13
	c0,6.147-4.983,11.13-11.13,11.13h-33.391h-22.261h-11.13H33.391H0v-44.522c0-12.295,9.966-22.261,22.261-22.261v-55.652
	c0-6.147,4.983-11.13,11.13-11.13V166.957C14.949,166.957,0,152.007,0,133.565l0,0c0-18.441,14.949-33.391,33.391-33.391
	c0-36.883,29.9-66.783,66.783-66.783l0,0C100.174,14.95,115.123,0,133.565,0h244.87c18.442,0,33.391,14.949,33.391,33.391l0,0
	c36.883,0,66.783,29.9,66.783,66.783c18.442,0,33.391,14.949,33.391,33.391l0,0C512,152.007,497.051,166.957,478.609,166.957z"/>
<path style="fill:#C6A860;" d="M512,133.565L512,133.565c0-18.442-14.949-33.391-33.391-33.391H367.304
	c-6.147,0-11.13-4.983-11.13-11.13c0-6.147,4.983-11.13,11.13-11.13h107.489c-9.169-25.935-33.892-44.522-62.967-44.522l0,0
	C411.826,14.95,396.877,0,378.435,0h-244.87c-18.442,0-33.391,14.949-33.391,33.391l0,0c-29.075,0-53.798,18.587-62.967,44.522
	h107.489c6.147,0,11.13,4.983,11.13,11.13c0,6.147-4.983,11.13-11.13,11.13H33.391C14.949,100.174,0,115.123,0,133.565l0,0
	c0,18.442,14.949,33.391,33.391,33.391h33.391c6.147,0,11.13,4.983,11.13,11.13c0,6.147-4.983,11.13-11.13,11.13H33.391v166.957
	h33.391c6.147,0,11.13,4.983,11.13,11.13c0,6.147-4.983,11.13-11.13,11.13H33.391c-6.147,0-11.13,4.983-11.13,11.13v33.391h77.913
	c6.147,0,11.13,4.983,11.13,11.13c0,6.147-4.983,11.13-11.13,11.13H22.261C9.966,445.217,0,455.184,0,467.478V512h33.391h111.304
	h33.391v-44.522c0-12.295-9.966-22.261-22.261-22.261h-11.13c-6.147,0-11.13-4.983-11.13-11.13c0-6.147,4.983-11.13,11.13-11.13
	h11.13v-33.391c0-6.147-4.983-11.13-11.13-11.13h-33.391c-6.147,0-11.13-4.983-11.13-11.13c0-6.147,4.983-11.13,11.13-11.13h33.391
	v-77.913c0-61.471,49.832-111.304,111.304-111.304l0,0c61.471,0,111.304,49.832,111.304,111.304v77.913h33.391
	c6.147,0,11.13,4.983,11.13,11.13c0,6.147-4.983,11.13-11.13,11.13h-33.391c-6.147,0-11.13,4.983-11.13,11.13v33.391h11.13
	c6.147,0,11.13,4.983,11.13,11.13c0,6.147-4.983,11.13-11.13,11.13h-11.13c-12.295,0-22.261,9.966-22.261,22.261V512h33.391h111.304
	H512v-44.522c0-12.295-9.966-22.261-22.261-22.261h-77.913c-6.147,0-11.13-4.983-11.13-11.13c0-6.147,4.983-11.13,11.13-11.13
	h77.913v-33.391c0-6.147-4.983-11.13-11.13-11.13h-33.391c-6.147,0-11.13-4.983-11.13-11.13c0-6.147,4.983-11.13,11.13-11.13h33.391
	V189.217h-33.391c-6.147,0-11.13-4.983-11.13-11.13c0-6.147,4.983-11.13,11.13-11.13h33.391
	C497.051,166.957,512,152.007,512,133.565z M197.009,100.174h-2.226c-6.147,0-11.13-4.983-11.13-11.13
	c0-6.147,4.983-11.13,11.13-11.13h2.226c6.147,0,11.13,4.983,11.13,11.13C208.139,95.191,203.156,100.174,197.009,100.174z
	 M261.287,100.174h-10.574c-6.147,0-11.13-4.983-11.13-11.13c0-6.147,4.983-11.13,11.13-11.13h10.574
	c6.147,0,11.13,4.983,11.13,11.13C272.417,95.191,267.434,100.174,261.287,100.174z M317.217,100.174h-2.226
	c-6.147,0-11.13-4.983-11.13-11.13c0-6.147,4.983-11.13,11.13-11.13h2.226c6.147,0,11.13,4.983,11.13,11.13
	C328.348,95.191,323.365,100.174,317.217,100.174z"/>
<path style="fill:#D8BF77;" d="M111.685,356.174h33.011v-77.913c0-61.471,49.832-111.304,111.304-111.304l0,0v-66.783h-4.906
	c-5.928,0-11.105-4.473-11.488-10.39c-0.419-6.482,4.715-11.871,11.107-11.871H256l0,0C256,34.883,221.117,0,178.087,0h-44.522
	c-18.442,0-33.391,14.949-33.391,33.391l0,0c-29.075,0-53.798,18.587-62.967,44.522h107.108c5.928,0,11.105,4.473,11.488,10.39
	c0.419,6.482-4.715,11.871-11.107,11.871H33.391C14.949,100.174,0,115.123,0,133.565l0,0c0,18.442,14.949,33.391,33.391,33.391
	h33.011c5.928,0,11.105,4.473,11.488,10.39c0.419,6.482-4.715,11.871-11.107,11.871H33.391v166.957h33.011
	c5.928,0,11.105,4.473,11.488,10.39c0.419,6.482-4.715,11.871-11.107,11.871H33.391c-6.147,0-11.13,4.983-11.13,11.13v33.391h77.532
	c5.928,0,11.105,4.473,11.488,10.39c0.419,6.482-4.715,11.871-11.107,11.871H22.261C9.966,445.217,0,455.184,0,467.478V512h33.391
	h111.304h33.391v-44.522c0-12.295-9.966-22.261-22.261-22.261h-10.75c-5.928,0-11.105-4.473-11.488-10.39
	c-0.419-6.482,4.715-11.871,11.107-11.871h11.13v-33.391c0-6.147-4.983-11.13-11.13-11.13h-33.391
	c-6.392,0-11.526-5.388-11.106-11.871C100.581,360.647,105.757,356.174,111.685,356.174z M194.783,77.913h2.226
	c6.147,0,11.13,4.983,11.13,11.13c0,6.147-4.983,11.13-11.13,11.13h-2.226c-6.147,0-11.13-4.983-11.13-11.13
	C183.652,82.896,188.635,77.913,194.783,77.913z"/>
<g>
</g>
<g>
</g>
<g>
</g>
<g>
</g>
<g>
</g>
<g>
</g>
<g>
</g>
<g>
</g>
<g>
</g>
<g>
</g>
<g>
</g>
<g>
</g>
<g>
</g>
<g>
</g>
<g>
</g>
</svg>
